name analog
datacolumns 19
datarows 34
range 0.501 0.5175
endheader
time	ground_force_vx	ground_force_vy	ground_force_vz	ground_force_px	ground_force_py	ground_force_pz	l_ground_force_vx	l_ground_force_vy	l_ground_force_vz	l_ground_force_px	l_ground_force_py	l_ground_force_pz	ground_torque_x	ground_torque_y	ground_torque_z	l_ground_torque_x	l_ground_torque_y	l_ground_torque_z
0.501	-0.0	-0.0	-0.0	-0.0	-0.0	-0.0	-5.290780544281006	-14.524772644042969	-767.784423828125	-0.0	-0.0	-0.0	-0.0	-0.0	-0.0	266621.0625	-9585.0732421875	-4194.017578125
0.5015000000000001	-0.0	-0.0	-0.0	-0.0	-0.0	-0.0	-5.628832817077637	-14.769659996032717	-772.6724853515625	-0.0	-0.0	-0.0	-0.0	-0.0	-0.0	268030.78125	-9719.0517578125	-4404.72900390625
0.502	-0.0	-0.0	-0.0	-0.0	-0.0	-0.0	-5.588779449462891	-15.003626823425291	-776.3212280273438	-0.0	-0.0	-0.0	-0.0	-0.0	-0.0	268957.59375	-9646.2890625	-4378.03662109375
0.5025000000000001	-0.0	-0.0	-0.0	-0.0	-0.0	-0.0	-5.815079689025879	-14.92636489868164	-780.5890502929688	-0.0	-0.0	-0.0	-0.0	-0.0	-0.0	270209.09375	-10102.7822265625	-4460.55810546875
0.503	-0.0	-0.0	-0.0	-0.0	-0.0	-0.0	-5.657646656036377	-15.319164276123049	-783.3814086914062	-0.0	-0.0	-0.0	-0.0	-0.0	-0.0	271047.84375	-10339.1650390625	-4299.44287109375
0.5035000000000001	-0.0	-0.0	-0.0	-0.0	-0.0	-0.0	-5.470077991485596	-16.065011978149414	-785.5911865234375	-0.0	-0.0	-0.0	-0.0	-0.0	-0.0	272051.375	-11077.8173828125	-4137.8876953125
0.504	-0.0	-0.0	-0.0	-0.0	-0.0	-0.0	-4.898828983306885	-17.25210189819336	-789.19873046875	-0.0	-0.0	-0.0	-0.0	-0.0	-0.0	272743.09375	-11123.0185546875	-4019.04296875
0.5045000000000001	-0.0	-0.0	-0.0	-0.0	-0.0	-0.0	-4.65228796005249	-18.69460678100586	-791.137939453125	-0.0	-0.0	-0.0	-0.0	-0.0	-0.0	273477.15625	-11309.3310546875	-3824.780029296875
0.505	-0.0	-0.0	-0.0	-0.0	-0.0	-0.0	-4.356197357177734	-19.342449188232425	-792.6514282226562	-0.0	-0.0	-0.0	-0.0	-0.0	-0.0	273785.84375	-11221.4765625	-3834.672119140625
0.5055000000000001	-0.0	-0.0	-0.0	-0.0	-0.0	-0.0	-4.8099284172058105	-19.519092559814453	-793.7400512695312	-0.0	-0.0	-0.0	-0.0	-0.0	-0.0	274045.125	-11188.0712890625	-3828.503662109375
0.506	-0.0	-0.0	-0.0	-0.0	-0.0	-0.0	-5.056514739990234	-19.94997215270996	-794.626708984375	-0.0	-0.0	-0.0	-0.0	-0.0	-0.0	274296.625	-11466.748046875	-3897.564453125
0.5065000000000001	-0.0	-0.0	-0.0	-0.0	-0.0	-0.0	-5.164661407470703	-20.716894149780277	-796.6110229492188	-0.0	-0.0	-0.0	-0.0	-0.0	-0.0	274802.4375	-11628.474609375	-4007.08154296875
0.507	-0.0	-0.0	-0.0	-0.0	-0.0	-0.0	-5.677490234375	-20.47135162353516	-797.341796875	-0.0	-0.0	-0.0	-0.0	-0.0	-0.0	275362.90625	-11611.50390625	-4099.11083984375
0.5075000000000001	-0.0	-0.0	-0.0	-0.0	-0.0	-0.0	-5.619579315185547	-20.029804229736328	-797.96337890625	-0.0	-0.0	-0.0	-0.0	-0.0	-0.0	275749.53125	-11307.560546875	-4386.4521484375
0.508	-0.0	-0.0	-0.0	-0.0	-0.0	-0.0	-5.72357177734375	-19.7648868560791	-800.52880859375	-0.0	-0.0	-0.0	-0.0	-0.0	-0.0	276213.21875	-11767.890625	-4445.81884765625
0.5085000000000001	-0.0	-0.0	-0.0	-0.0	-0.0	-0.0	-5.835728168487549	-18.98916244506836	-800.3781127929688	-0.0	-0.0	-0.0	-0.0	-0.0	-0.0	276609.21875	-11878.0380859375	-4481.82861328125
0.509	-0.0	-0.0	-0.0	-0.0	-0.0	-0.0	-5.924486637115479	-18.74324989318848	-799.5845947265625	-0.0	-0.0	-0.0	-0.0	-0.0	-0.0	276589.8125	-11928.8974609375	-4507.44091796875
0.5095000000000001	-0.0	-0.0	-0.0	-0.0	-0.0	-0.0	-5.538200378417969	-17.910320281982422	-800.57861328125	-0.0	-0.0	-0.0	-0.0	-0.0	-0.0	276667.375	-11833.017578125	-4540.71044921875
0.51	-0.0	-0.0	-0.0	-0.0	-0.0	-0.0	-5.8042073249816895	-17.82206153869629	-800.1058959960938	-0.0	-0.0	-0.0	-0.0	-0.0	-0.0	276978.09375	-11997.31640625	-4494.279296875
0.5105000000000001	-0.0	-0.0	-0.0	-0.0	-0.0	-0.0	-5.487934589385986	-17.714914321899414	-799.5064086914062	-0.0	-0.0	-0.0	-0.0	-0.0	-0.0	276816.0	-12200.208984375	-4335.04248046875
0.511	-0.0	-0.0	-0.0	-0.0	-0.0	-0.0	-4.5940775871276855	-17.840980529785156	-799.1856079101562	-0.0	-0.0	-0.0	-0.0	-0.0	-0.0	276638.59375	-12200.3935546875	-4148.1357421875
0.5115000000000001	-0.0	-0.0	-0.0	-0.0	-0.0	-0.0	-3.935479640960693	-17.835538864135742	-798.16064453125	-0.0	-0.0	-0.0	-0.0	-0.0	-0.0	276487.28125	-12130.640625	-3851.057861328125
0.512	-0.0	-0.0	-0.0	-0.0	-0.0	-0.0	-2.6425483226776123	-17.650787353515625	-798.0330810546875	-0.0	-0.0	-0.0	-0.0	-0.0	-0.0	276080.9375	-12508.6220703125	-3506.71923828125
0.5125	-0.0	-0.0	-0.0	-0.0	-0.0	-0.0	-2.0216453075408936	-18.161808013916016	-797.6641845703125	-0.0	-0.0	-0.0	-0.0	-0.0	-0.0	275462.8125	-12719.3359375	-3114.52099609375
0.513	-0.0	-0.0	-0.0	-0.0	-0.0	-0.0	-1.153240203857422	-18.584699630737305	-795.2384643554688	-0.0	-0.0	-0.0	-0.0	-0.0	-0.0	274866.0	-12867.8916015625	-2946.99267578125
0.5135	-0.0	-0.0	-0.0	-0.0	-0.0	-0.0	-0.4477685689926147	-19.05898094177246	-795.1644897460938	-0.0	-0.0	-0.0	-0.0	-0.0	-0.0	274468.28125	-12773.583984375	-2473.489501953125
0.514	-0.0	-0.0	-0.0	-0.0	-0.0	-0.0	0.2476098090410232	-20.151901245117188	-795.0911254882812	-0.0	-0.0	-0.0	-0.0	-0.0	-0.0	274157.21875	-12897.3984375	-2193.8876953125
0.5145	-0.0	-0.0	-0.0	-0.0	-0.0	-0.0	1.0275800228118896	-20.70406150817871	-792.6469116210938	-0.0	-0.0	-0.0	-0.0	-0.0	-0.0	273344.375	-12738.4833984375	-1903.026611328125
0.515	-0.0	-0.0	-0.0	-0.0	-0.0	-0.0	0.8319010734558105	-21.708812713623047	-790.9008178710938	-0.0	-0.0	-0.0	-0.0	-0.0	-0.0	272829.28125	-12922.00390625	-1732.6939697265625
0.5155	-0.0	-0.0	-0.0	-0.0	-0.0	-0.0	0.8534241318702698	-22.436697006225582	-789.22705078125	-0.0	-0.0	-0.0	-0.0	-0.0	-0.0	271718.8125	-12574.2919921875	-1679.5487060546875
0.516	-0.0	-0.0	-0.0	-0.0	-0.0	-0.0	1.0279399156570437	-22.94817543029785	-786.1454467773438	-0.0	-0.0	-0.0	-0.0	-0.0	-0.0	271164.40625	-12380.66015625	-1802.3690185546875
0.5165	-0.0	-0.0	-0.0	-0.0	-0.0	-0.0	0.9393740892410278	-23.56374740600586	-784.4719848632812	-0.0	-0.0	-0.0	-0.0	-0.0	-0.0	270234.1875	-12103.63671875	-1761.5888671875
0.517	-0.0	-0.0	-0.0	-0.0	-0.0	-0.0	0.5322647094726562	-23.30098342895508	-784.257568359375	-0.0	-0.0	-0.0	-0.0	-0.0	-0.0	269677.8125	-11789.1806640625	-1911.562255859375
0.5175	-0.0	-0.0	-0.0	-0.0	-0.0	-0.0	0.1068155765533447	-23.15830612182617	-784.0520629882812	-0.0	-0.0	-0.0	-0.0	-0.0	-0.0	269498.65625	-11697.6943359375	-2005.4049072265625
